<?xml version="1.0" encoding="UTF-8" standalone="no"?>
<svg
   xmlns:dc="http://purl.org/dc/elements/1.1/"
   xmlns:cc="http://creativecommons.org/ns#"
   xmlns:rdf="http://www.w3.org/1999/02/22-rdf-syntax-ns#"
   xmlns:svg="http://www.w3.org/2000/svg"
   xmlns="http://www.w3.org/2000/svg"
   xmlns:sodipodi="http://sodipodi.sourceforge.net/DTD/sodipodi-0.dtd"
   xmlns:inkscape="http://www.inkscape.org/namespaces/inkscape"
   inkscape:version="1.0 (4035a4fb49, 2020-05-01)"
   sodipodi:docname="protonmail.svg"
   id="svg873"
   version="1.1"
   viewBox="0 0 24 24"
   role="img">
  <metadata
     id="metadata879">
    <rdf:RDF>
      <cc:Work
         rdf:about="">
        <dc:format>image/svg+xml</dc:format>
        <dc:type
           rdf:resource="http://purl.org/dc/dcmitype/StillImage" />
      </cc:Work>
    </rdf:RDF>
  </metadata>
  <defs
     id="defs877" />
  <sodipodi:namedview
     inkscape:current-layer="svg873"
     inkscape:window-maximized="1"
     inkscape:window-y="-9"
     inkscape:window-x="-9"
     inkscape:cy="18.597295"
     inkscape:cx="-32.326065"
     inkscape:zoom="6.6143947"
     showgrid="false"
     id="namedview875"
     inkscape:window-height="1051"
     inkscape:window-width="1920"
     inkscape:pageshadow="2"
     inkscape:pageopacity="0"
     guidetolerance="10"
     gridtolerance="10"
     objecttolerance="10"
     borderopacity="1"
     bordercolor="#666666"
     pagecolor="#ffffff" />
  <title
     id="title869">ProtonMail icon</title>
  <path
     style="fill:#ffffff"
     id="path871"
     d="M12 20.352s-1.096-.108-1.955-.705c-.86-.596-6.58-4.688-6.58-4.688v8.098S3.513 24 4.55 24h14.9c1.036 0 1.085-.942 1.085-.942v-8.1s-5.723 4.092-6.58 4.69c-.86.595-1.955.704-1.955.704zM12 .002S4.925-.23 3.465 7.624v5.35s.06.572 1.67 1.735c1.607 1.162 5.773 4.436 6.867 4.436 1.088 0 5.254-3.273 6.865-4.437 1.607-1.164 1.668-1.737 1.668-1.737v-5.35C19.075-.228 12 .004 12 .004zm4.846 10.536h-9.69V7.624C8.14 3.724 12 3.67 12 3.67s3.863.054 4.846 3.954v2.914z" />
</svg>
